<?xml version="1.0" standalone="no"?>
<!DOCTYPE svg PUBLIC "-//W3C//DTD SVG 20010904//EN"
 "http://www.w3.org/TR/2001/REC-SVG-20010904/DTD/svg10.dtd">
<svg version="1.0" xmlns="http://www.w3.org/2000/svg"
 width="1200.000000pt" height="1200.000000pt" viewBox="0 0 1200.000000 1200.000000"
 preserveAspectRatio="xMidYMid meet">
<metadata>
Created by potrace 1.11, written by Peter Selinger 2001-2013
</metadata>
<g transform="translate(0.000000,1200.000000) scale(0.100000,-0.100000)"
fill="#000000" stroke="none">
<path d="M5847 8214 c-1 -1 -175 -5 -387 -8 -212 -4 -439 -9 -505 -11 -226 -8
-410 -15 -480 -20 -38 -2 -122 -7 -185 -11 -63 -3 -131 -7 -150 -9 -107 -8
-199 -16 -230 -20 -36 -4 -106 -12 -175 -21 -264 -31 -453 -120 -595 -281
-130 -147 -181 -283 -229 -618 -17 -123 -24 -182 -36 -325 -31 -375 -45 -945
-30 -1260 2 -58 7 -157 10 -220 5 -102 11 -205 20 -295 12 -130 17 -176 39
-352 22 -171 68 -348 113 -438 114 -226 334 -389 583 -431 14 -3 48 -9 75 -14
28 -5 75 -12 105 -15 30 -3 71 -8 90 -10 19 -3 67 -7 105 -10 39 -3 86 -7 105
-9 19 -3 94 -8 165 -12 72 -4 148 -8 170 -9 36 -3 251 -12 460 -20 552 -22
1712 -22 2240 0 50 2 158 6 240 10 239 9 446 21 535 30 25 2 79 7 120 10 41 4
93 8 115 11 22 2 63 7 91 9 28 3 62 8 75 10 13 3 38 7 54 10 72 12 94 18 155
37 181 58 331 176 435 343 55 88 91 186 121 330 8 35 43 278 49 330 11 112 13
134 20 215 4 47 8 105 10 130 26 326 26 1129 0 1410 -2 25 -7 88 -10 140 -4
52 -8 106 -10 120 -2 14 -6 50 -10 80 -5 47 -11 92 -30 235 -7 55 -39 208 -55
268 -73 262 -280 475 -539 551 -61 18 -194 42 -286 51 -33 4 -71 8 -85 10 -14
2 -56 7 -95 10 -38 3 -93 8 -121 10 -295 28 -1106 53 -1847 59 -115 0 -209 0
-210 0z"/>
</g>
</svg>
